# xmcd
#
# Track frame offsets: 
#        150
#        26164
#        48021
#        68994
#        98753
#        106537
#        124588
#        148801
#        177305
#        195525
#        206645
#        230813
#        262217
#        278192
#        300402
#
# Disc length: 4086 seconds
#
# Revision: 1
# Processed by: cddbd v1.5.2PL0 Copyright (c) Steve Scherf et al.
# Submitted via: ExactAudioCopyFreeDBPlugin 1.0
#
DISCID=d80ff40f
DTITLE=Various Artist - Night Rhythms 3 - Broadcasting the Blues Vol.
DTITLE=3
DYEAR=2002
DGENRE=Blues
TTITLE0=Metropolitan Blues All-Stars - You Gotta Help Me
TTITLE1=Mick Clarke Band - Gypsy Blues
TTITLE2=Brenda Burns - One Woman Man
TTITLE3=Tim Brooks and The Alien Sharecroppers - Blind Willie McTell
TTITLE4=Sam Mitchell - Little Peer
TTITLE5=Buick 6 - Cypress Grove
TTITLE6=Chris Smith - It Don't Make Sense
TTITLE7=Grand Lyle - Traces
TTITLE8=John Campbelljohn - Phone Booth
TTITLE9=Paul Keim - Tomorrow Morning
TTITLE10=The Urn - Feelings
TTITLE11=Rhett Tyler and Early Warning - Cold Wind Blowin'
TTITLE12=Diane Durrett - Blue Eyed Soul
TTITLE13=Bugs Henderson - Anthem For The Blues
TTITLE14=Paul Keim - Amazing Grace
EXTD=YEAR: 2002 ID3G: 0
EXTT0=
EXTT1=
EXTT2=
EXTT3=
EXTT4=
EXTT5=
EXTT6=
EXTT7=
EXTT8=
EXTT9=
EXTT10=
EXTT11=
EXTT12=
EXTT13=
EXTT14=
PLAYORDER=
